<?xml version="1.0" encoding="utf-8"?>
<!-- Generator: Adobe Illustrator 27.2.0, SVG Export Plug-In . SVG Version: 6.00 Build 0)  -->
<svg version="1.1" id="Layer_1" xmlns="http://www.w3.org/2000/svg" xmlns:xlink="http://www.w3.org/1999/xlink" x="0px" y="0px"
	 viewBox="0 0 476 99" style="enable-background:new 0 0 476 99;" xml:space="preserve">
<style type="text/css">
	.st0{fill:none;}
</style>
<g>
	<path class="st0" d="M49.88,4.47c20.46,0,30.7,2.69,30.7,8.08c0,1.46-0.53,2.65-1.57,3.57c-1.05,0.92-3.05,1.94-6,3.07
		c-2.56,1-4.18,2.32-4.87,3.94c-0.69,1.63-1.03,4.93-1.03,9.89c0,2.92,0.85,4.72,2.56,5.38c0.98,0.42,2.47,0.67,4.48,0.75
		c2,0.08,6.71,0.13,14.12,0.13c6.75,0,10.95-0.23,12.59-0.69c1.64-0.46,2.46-1.61,2.46-3.44c0-5.51-0.39-9.35-1.18-11.52
		c-0.79-2.17-2.33-3.65-4.62-4.44c-2.89-1.04-4.79-1.93-5.71-2.66c-0.92-0.73-1.38-1.7-1.38-2.91c0-1.71,1.02-3.27,3.05-4.66
		c2.03-1.4,4.69-2.35,7.97-2.85c6.82-1.04,15.38-1.57,25.68-1.57c12.07,0,20.97,0.7,26.71,2.1c5.74,1.4,8.61,3.58,8.61,6.54
		c0,2.5-2.03,4.38-6.1,5.63c-2.56,0.75-4.23,1.47-5.02,2.16c-0.79,0.69-1.41,1.97-1.87,3.85c-0.26,1.04-0.59,5.68-0.98,13.9
		c-0.39,8.22-0.59,14.75-0.59,19.6c0,8.47,0.49,13.86,1.48,16.15c0.52,1.25,1.11,2.09,1.77,2.5c0.65,0.42,2.72,1.25,6.2,2.5
		c2.49,0.88,3.74,2.21,3.74,4.01c0,3.17-2.97,5.48-8.9,6.92c-5.94,1.44-15.56,2.16-28.88,2.16c-11.68,0-20.3-0.73-25.88-2.19
		c-5.05-1.34-7.58-3.4-7.58-6.2c0-2.38,1.93-4.24,5.8-5.57c1.9-0.67,3.2-1.34,3.89-2c0.69-0.67,1.36-1.9,2.02-3.69
		c1.18-3.51,1.77-7.8,1.77-12.9c0-2.63-0.61-4.26-1.82-4.88c-1.21-0.63-4.38-0.94-9.49-0.94c-11.74,0-19.22,0.42-22.43,1.25
		c-1.31,0.33-2.13,1.31-2.46,2.94c-0.39,2-0.59,4.47-0.59,7.39c0,4.76,1.05,8.18,3.15,10.27c0.72,0.67,2.43,1.52,5.12,2.57
		c2.75,1,4.13,2.65,4.13,4.95c0,2.92-3.18,5.16-9.54,6.7c-6.36,1.54-15.45,2.32-27.25,2.32c-10.76,0-19.55-0.71-26.37-2.13
		c-2.95-0.63-5.26-1.51-6.94-2.66c-1.67-1.15-2.51-2.41-2.51-3.79c0-1.38,0.52-2.44,1.57-3.19c1.05-0.75,3.34-1.71,6.89-2.88
		c1.84-0.58,3.13-1.34,3.89-2.25c0.75-0.92,1.33-2.46,1.72-4.63c0.98-4.88,1.48-11.27,1.48-19.16c0-1.46-0.03-3.19-0.1-5.2
		c-0.26-10.02-0.39-15.73-0.39-17.15c0.06-3.59-0.41-5.96-1.43-7.11c-1.02-1.15-3.69-2.41-8.02-3.79c-2.89-0.88-4.33-2.19-4.33-3.94
		c0-4.22,6.43-7.14,19.28-8.76C34.33,4.95,42.01,4.47,49.88,4.47z M266.52,65.39l-11.81,16.84c-2.03,2.84-3.67,4.75-4.92,5.73
		c-1.25,0.98-2.62,1.47-4.13,1.47c-1.44,0-2.72-0.4-3.84-1.19c-0.72-0.5-2.38-2.34-4.97-5.51c-2.59-3.17-4.74-5.99-6.44-8.45
		l-12.99-18.59c-1.77-2.59-3.64-3.88-5.61-3.88c-2.1,0-3.25,1.11-3.44,3.32c-0.46,4.93-0.69,9.48-0.69,13.65
		c0,4.34,0.33,7.28,0.98,8.83c0.46,0.92,1.07,1.59,1.82,2c0.75,0.42,2.8,1.17,6.15,2.25c2.16,0.71,3.25,1.94,3.25,3.69
		c0,4.67-9.41,7.01-28.24,7.01c-15.87,0-23.81-2.27-23.81-6.82c0-1.17,0.41-2.01,1.23-2.54c0.82-0.52,2.93-1.3,6.35-2.35
		c2.16-0.63,3.62-1.48,4.38-2.57c0.75-1.08,1.39-3.19,1.92-6.32c0.59-3.34,1.15-8.82,1.67-16.43c0.52-7.62,0.79-14.14,0.79-19.56
		c0-6.8-0.82-11.42-2.46-13.84c-0.59-0.83-1.26-1.46-2.02-1.88c-0.75-0.42-2.18-0.96-4.28-1.63c-4.66-1.42-6.99-3.26-6.99-5.51
		c0-1.46,0.87-2.8,2.61-4.01c1.74-1.21,4.05-2.07,6.94-2.57c2.89-0.54,6.74-1.01,11.56-1.41c4.82-0.4,8.9-0.59,12.25-0.59
		c8.4,0,14.33,0.44,17.81,1.31c1.7,0.42,3.05,0.98,4.03,1.69c0.98,0.71,2.39,2.17,4.23,4.38l20.46,23.98
		c2.23,2.63,3.77,4.24,4.62,4.82c0.85,0.58,2.03,0.88,3.54,0.88c1.31,0,2.48-0.31,3.49-0.94c1.02-0.63,2.21-1.79,3.59-3.51
		l13.87-17.22c1.7-2.21,2.82-3.65,3.35-4.32c3.21-4.17,6.39-6.95,9.54-8.33c4-1.79,11.28-2.69,21.84-2.69
		c18.56,0,27.84,2.69,27.84,8.08c0,1.21-0.36,2.18-1.08,2.91c-0.72,0.73-2.2,1.62-4.43,2.66c-3.02,1.46-4.92,3.57-5.71,6.32
		c-1.51,5.76-2.26,12.77-2.26,21.04c0,10.64,0.79,19.97,2.36,27.98c0.39,1.96,1,3.3,1.82,4.01c0.82,0.71,2.93,1.77,6.35,3.19
		c2.36,1,3.54,2.34,3.54,4.01c0,2.92-3.05,4.99-9.15,6.2c-3.15,0.67-6.46,1.11-9.94,1.31c-3.48,0.21-8.82,0.31-16.04,0.31
		c-11.09,0-19.35-0.5-24.79-1.5c-6.04-1.13-9.05-3.05-9.05-5.76c0-1,0.39-1.83,1.18-2.47c0.79-0.65,2.82-1.83,6.1-3.54
		c1.7-0.88,2.87-2.57,3.49-5.07c0.62-2.5,0.93-6.76,0.93-12.77c0-3.34-0.25-5.53-0.74-6.57c-0.49-1.04-1.53-1.57-3.1-1.57
		c-1.84,0-3.61,0.8-5.31,2.41C272.49,57.39,269.93,60.59,266.52,65.39z M428.36,4.54c7.35,0,14.82,0.42,22.43,1.25
		c6.23,0.67,10.69,1.59,13.38,2.75c2.69,1.17,4.03,2.78,4.03,4.82c0,1.29-0.49,2.31-1.48,3.04c-0.98,0.73-3.12,1.62-6.39,2.66
		c-3.8,1.25-5.99,2.72-6.54,4.41c-0.56,1.69-1.07,8.25-1.53,19.69c-0.2,11.06-0.38,17.7-0.54,19.91c-0.16,2.21-0.57,4.36-1.23,6.45
		c-1.9,6.09-5.74,10.87-11.51,14.34c-4.72,2.84-10.79,5.07-18.2,6.7c-7.41,1.63-15.22,2.44-23.42,2.44
		c-7.28,0-14.58-0.61-21.89-1.82c-7.31-1.21-13.66-2.88-19.04-5.01c-4.46-1.75-8-4.12-10.63-7.11s-3.94-6.17-3.94-9.55
		c0-4.17,2.07-7.63,6.2-10.36c4.13-2.73,9.31-4.1,15.54-4.1c6.1,0,11.28,1.15,15.54,3.44c4.26,2.34,6.39,5.22,6.39,8.64
		c0,0.88-0.39,2.34-1.18,4.38c-0.13,0.42-0.2,0.88-0.2,1.38c0,1.34,0.75,2.42,2.26,3.26c1.51,0.84,3.51,1.25,6,1.25
		c4.39,0,7.93-1.25,10.63-3.76c2.69-2.5,4.03-5.8,4.03-9.89l-0.1-5.7l-0.2-15.34c-0.59-9.31-1.03-14.78-1.33-16.43
		c-0.29-1.65-1.03-2.99-2.21-4.04c-0.98-0.83-1.85-1.38-2.61-1.63c-0.76-0.25-2.8-0.65-6.15-1.19c-1.57-0.21-2.92-0.79-4.03-1.75
		c-1.12-0.96-1.67-1.98-1.67-3.07c0-2.25,1.39-4.06,4.18-5.42c2.79-1.36,7.33-2.45,13.63-3.29C413.63,5,420.88,4.54,428.36,4.54z"/>
</g>
</svg>
